<svg width="196" height="84" viewBox="0 0 196 84" fill="none" xmlns="http://www.w3.org/2000/svg">
<g clip-path="url(#clip0)">
<path fill-rule="evenodd" clip-rule="evenodd" d="M7.73395 31.7847L10.5753 33.5133L10.5307 36.8465L10.3829 40.2187L10.244 43.6063L10.0962 46.9785L12.9464 48.7224L15.7878 50.451L18.6291 52.1796L21.4794 53.9236L24.305 55.6612L27.1553 57.4052L29.9966 59.1338L32.9386 57.5174L35.8608 55.8303L38.7829 54.1432L41.7208 52.447L44.6429 50.7599L47.565 49.0728L50.5029 47.3766L50.6507 44.0045L50.7896 40.6169L50.9374 37.2447L51.0763 33.8571L54.0141 32.1609L53.8062 38.2589C53.6793 38.3295 53.5726 38.4314 53.4967 38.5545C53.4208 38.6776 53.3783 38.8176 53.3735 38.9607C53.3774 39.0914 53.4135 39.2187 53.4786 39.3314C53.5437 39.4442 53.6359 39.5391 53.7471 39.6078L53.6496 39.9106L53.0065 41.6993L54.1731 41.7243L55.3307 41.7339L54.8339 39.9664L54.6916 39.7199C54.8059 39.6464 54.8994 39.5449 54.9627 39.4254C55.026 39.306 55.057 39.1728 55.0526 39.039C55.0668 38.8672 55.0287 38.6959 54.943 38.5476C54.8573 38.3992 54.7281 38.2805 54.5722 38.207L54.8038 31.7872L32.1092 17.8761L32.8161 17.4679L55.5108 31.379L57.0818 30.472L60.004 28.7849L57.1694 27.0318L54.4535 25.8471L51.6122 24.1185L48.7619 22.3745L45.8735 20.6731L43.0677 19.0062L40.2263 17.2776L37.385 15.549L34.4882 13.6881L31.6646 11.9904L28.7268 13.6866L25.7335 15.2504L22.8113 16.9375L19.8735 18.6337L16.9513 20.3208L13.8958 21.7768L10.9223 23.4113L7.92638 25.0794L4.98021 26.616L2.04236 28.3122L4.88371 30.0408L7.73395 31.7847ZM28.2121 27.0901L31.1855 25.4555L34.0358 27.1995L36.8771 28.9281L33.9393 30.6242L30.8899 32.1999L27.9678 33.887L27.82 37.2592L30.6613 38.9878L33.5835 37.3007L36.5213 35.6045L39.4435 33.9174L42.3656 32.2303L45.3035 30.5341L47.3144 29.3731L48.2256 28.847L45.8109 27.3857L45.3843 27.1184L42.5429 25.3899L39.9423 23.9332L37.101 22.2046L34.2664 20.4515L31.4722 18.6957L28.5343 20.3919L25.6122 22.079L22.6901 23.7661L19.7522 25.4623L16.8301 27.1494L13.9079 28.8365L16.4976 30.2379L16.3498 33.6101L16.2109 36.9977L16.0631 40.3699L16.0159 42.1022L15.9556 43.7393L18.797 45.4679L21.6315 47.2209L24.4728 48.9495L27.3859 50.6572L30.2362 52.4012L33.1583 50.7141L36.0962 49.0179L39.0183 47.3308L41.9405 45.6437L44.8783 43.9476L45.0172 40.56L45.165 37.1878L42.2271 38.884L39.305 40.5711L36.3829 42.2582L33.445 43.9543L30.5229 45.6414L27.6726 43.8974L24.8313 42.1689L21.9899 40.4403L22.4155 30.2929L25.3376 28.6058L28.2121 27.0901Z" fill="url(#paint0_linear)"/>
</g>
<path d="M90.1756 35.3643C90.1756 36.0663 90.1318 36.7975 90.044 37.558H73.0647C73.1817 39.079 73.6644 40.2489 74.5126 41.0679C75.3901 41.8577 76.4577 42.2525 77.7154 42.2525C79.5874 42.2525 80.889 41.4628 81.6202 39.8833H89.6053C89.1958 41.492 88.4499 42.9399 87.3677 44.2269C86.3147 45.5138 84.9839 46.5229 83.3752 47.2542C81.7664 47.9854 79.9676 48.351 77.9786 48.351C75.5802 48.351 73.445 47.8392 71.573 46.8154C69.7011 45.7917 68.2386 44.3292 67.1856 42.428C66.1326 40.5268 65.6061 38.3038 65.6061 35.7591C65.6061 33.2145 66.118 30.9915 67.1417 29.0903C68.1947 27.1891 69.6572 25.7266 71.5292 24.7029C73.4011 23.6791 75.5509 23.1673 77.9786 23.1673C80.3478 23.1673 82.4538 23.6645 84.2965 24.659C86.1392 25.6535 87.5725 27.0721 88.5962 28.9148C89.6492 30.7575 90.1756 32.9073 90.1756 35.3643ZM82.4977 33.3899C82.4977 32.103 82.0589 31.0792 81.1815 30.3188C80.304 29.5583 79.2071 29.178 77.8909 29.178C76.6332 29.178 75.5656 29.5436 74.6881 30.2749C73.8399 31.0061 73.3134 32.0445 73.1086 33.3899H82.4977ZM100.759 42.2086H110.586V48H93.2561V17.2004H100.759V42.2086Z" fill="url(#paint1_linear)"/>
<path d="M136.365 35.3643C136.365 36.0663 136.321 36.7975 136.234 37.558H119.254C119.371 39.079 119.854 40.2489 120.702 41.0679C121.58 41.8577 122.647 42.2525 123.905 42.2525C125.777 42.2525 127.078 41.4628 127.81 39.8833H135.795C135.385 41.492 134.639 42.9399 133.557 44.2269C132.504 45.5138 131.173 46.5229 129.565 47.2542C127.956 47.9854 126.157 48.351 124.168 48.351C121.77 48.351 119.634 47.8392 117.763 46.8154C115.891 45.7917 114.428 44.3292 113.375 42.428C112.322 40.5268 111.796 38.3038 111.796 35.7591C111.796 33.2145 112.308 30.9915 113.331 29.0903C114.384 27.1891 115.847 25.7266 117.719 24.7029C119.591 23.6791 121.74 23.1673 124.168 23.1673C126.537 23.1673 128.643 23.6645 130.486 24.659C132.329 25.6535 133.762 27.0721 134.786 28.9148C135.839 30.7575 136.365 32.9073 136.365 35.3643ZM128.687 33.3899C128.687 32.103 128.248 31.0792 127.371 30.3188C126.493 29.5583 125.397 29.178 124.08 29.178C122.823 29.178 121.755 29.5436 120.878 30.2749C120.029 31.0061 119.503 32.0445 119.298 33.3899H128.687ZM154.363 23.255C157.229 23.255 159.511 24.191 161.207 26.063C162.933 27.9057 163.796 30.4504 163.796 33.6971V48H156.337V34.7062C156.337 33.0682 155.913 31.7959 155.065 30.8891C154.217 29.9824 153.076 29.529 151.643 29.529C150.209 29.529 149.069 29.9824 148.22 30.8891C147.372 31.7959 146.948 33.0682 146.948 34.7062V48H139.446V23.5183H146.948V26.765C147.709 25.6827 148.732 24.8345 150.019 24.2203C151.306 23.5768 152.754 23.255 154.363 23.255ZM166.64 35.7153C166.64 33.1998 167.108 30.9915 168.044 29.0903C169.009 27.1891 170.311 25.7266 171.949 24.7029C173.587 23.6791 175.415 23.1673 177.433 23.1673C179.159 23.1673 180.665 23.5183 181.952 24.2203C183.268 24.9222 184.277 25.8436 184.979 26.9843V23.5183H192.482V48H184.979V44.534C184.248 45.6747 183.224 46.5961 181.908 47.298C180.621 48 179.115 48.351 177.389 48.351C175.4 48.351 173.587 47.8392 171.949 46.8154C170.311 45.7624 169.009 44.2854 168.044 42.3841C167.108 40.4537 166.64 38.2307 166.64 35.7153ZM184.979 35.7591C184.979 33.8872 184.453 32.4101 183.4 31.3279C182.376 30.2456 181.118 29.7045 179.627 29.7045C178.135 29.7045 176.863 30.2456 175.81 31.3279C174.786 32.3808 174.274 33.8433 174.274 35.7153C174.274 37.5872 174.786 39.079 175.81 40.1904C176.863 41.2727 178.135 41.8138 179.627 41.8138C181.118 41.8138 182.376 41.2727 183.4 40.1904C184.453 39.1082 184.979 37.6311 184.979 35.7591Z" fill="#F2994A"/>
<path d="M7.34058 75.2881C7.34058 75.4626 7.31981 75.6537 7.27827 75.8614H2.45517C2.4801 76.3848 2.61303 76.7629 2.85398 76.9955C3.09493 77.2198 3.40234 77.332 3.77623 77.332C4.09195 77.332 4.35367 77.2531 4.56138 77.0952C4.7691 76.9374 4.90619 76.7338 4.97265 76.4845H7.22842C7.13703 76.9747 6.93762 77.4151 6.63021 77.8056C6.32279 78.1878 5.93229 78.491 5.4587 78.7154C4.98512 78.9314 4.45753 79.0394 3.87593 79.0394C3.19463 79.0394 2.58811 78.8982 2.05636 78.6157C1.53292 78.3249 1.12165 77.9095 0.822544 77.3694C0.523437 76.8293 0.373884 76.1979 0.373884 75.4751C0.373884 74.7439 0.519283 74.1125 0.810082 73.5807C1.10919 73.0407 1.52461 72.6294 2.05636 72.3469C2.58811 72.0561 3.19463 71.9107 3.87593 71.9107C4.56554 71.9107 5.17206 72.0519 5.6955 72.3344C6.21893 72.6169 6.6219 73.0157 6.90439 73.5309C7.19519 74.0377 7.34058 74.6234 7.34058 75.2881ZM5.18452 74.9641C5.19283 74.5071 5.0682 74.1665 4.81064 73.9421C4.56138 73.7095 4.24981 73.5932 3.87593 73.5932C3.48543 73.5932 3.16139 73.7095 2.90383 73.9421C2.64627 74.1748 2.50087 74.5154 2.46763 74.9641H5.18452ZM13.0378 73.6929V75.4626H7.54174V73.6929H13.0378ZM16.8511 77.3195H19.6926V78.9522H14.7199V70.141H16.8511V77.3195ZM27.0274 75.2881C27.0274 75.4626 27.0066 75.6537 26.9651 75.8614H22.142C22.1669 76.3848 22.2999 76.7629 22.5408 76.9955C22.7818 77.2198 23.0892 77.332 23.4631 77.332C23.7788 77.332 24.0405 77.2531 24.2482 77.0952C24.4559 76.9374 24.593 76.7338 24.6595 76.4845H26.9152C26.8239 76.9747 26.6244 77.4151 26.317 77.8056C26.0096 78.1878 25.6191 78.491 25.1455 78.7154C24.6719 78.9314 24.1444 79.0394 23.5628 79.0394C22.8815 79.0394 22.2749 78.8982 21.7432 78.6157C21.2198 78.3249 20.8085 77.9095 20.5094 77.3694C20.2103 76.8293 20.0607 76.1979 20.0607 75.4751C20.0607 74.7439 20.2061 74.1125 20.4969 73.5807C20.796 73.0407 21.2114 72.6294 21.7432 72.3469C22.2749 72.0561 22.8815 71.9107 23.5628 71.9107C24.2524 71.9107 24.8589 72.0519 25.3823 72.3344C25.9058 72.6169 26.3087 73.0157 26.5912 73.5309C26.882 74.0377 27.0274 74.6234 27.0274 75.2881ZM24.8713 74.9641C24.8797 74.5071 24.755 74.1665 24.4975 73.9421C24.2482 73.7095 23.9366 73.5932 23.5628 73.5932C23.1723 73.5932 22.8482 73.7095 22.5907 73.9421C22.3331 74.1748 22.1877 74.5154 22.1545 74.9641H24.8713ZM30.5312 71.9107C31.063 71.9107 31.5199 72.0312 31.9021 72.2721C32.2843 72.5131 32.5668 72.8412 32.7496 73.2567V71.9979H34.8683V78.9522H32.7496V77.6934C32.5668 78.1089 32.2843 78.437 31.9021 78.678C31.5199 78.9189 31.063 79.0394 30.5312 79.0394C29.9579 79.0394 29.4428 78.8982 28.9858 78.6157C28.5372 78.3249 28.1799 77.9095 27.914 77.3694C27.6565 76.8293 27.5277 76.1979 27.5277 75.4751C27.5277 74.7439 27.6565 74.1125 27.914 73.5807C28.1799 73.0407 28.5372 72.6294 28.9858 72.3469C29.4428 72.0561 29.9579 71.9107 30.5312 71.9107ZM31.2167 73.7801C30.7597 73.7801 30.39 73.9297 30.1075 74.2288C29.8333 74.5279 29.6962 74.9433 29.6962 75.4751C29.6962 76.0068 29.8333 76.4222 30.1075 76.7213C30.39 77.0204 30.7597 77.17 31.2167 77.17C31.6653 77.17 32.0309 77.0163 32.3134 76.7089C32.6042 76.4015 32.7496 75.9902 32.7496 75.4751C32.7496 74.9516 32.6042 74.5403 32.3134 74.2412C32.0309 73.9338 31.6653 73.7801 31.2167 73.7801ZM38.2174 73.3065C38.4833 72.8828 38.824 72.5463 39.2394 72.297C39.6631 72.0478 40.1201 71.9232 40.6103 71.9232V74.2038H39.9996C39.4346 74.2038 38.9943 74.3243 38.6786 74.5653C38.3712 74.8062 38.2174 75.2133 38.2174 75.7866V78.9522H36.0863V71.9979H38.2174V73.3065ZM45.6648 71.9232C46.4625 71.9232 47.0939 72.189 47.5592 72.7208C48.0328 73.2525 48.2696 73.9837 48.2696 74.9142V78.9522H46.1384V75.1635C46.1384 74.6982 46.0138 74.3368 45.7645 74.0792C45.5236 73.8133 45.1996 73.6804 44.7924 73.6804C44.3604 73.6804 44.0156 73.8175 43.758 74.0917C43.5088 74.3659 43.3841 74.7564 43.3841 75.2632V78.9522H41.253V71.9979H43.3841V73.2691C43.5836 72.8537 43.8785 72.5255 44.269 72.2846C44.6678 72.0436 45.1331 71.9232 45.6648 71.9232ZM49.2265 70.0413C49.2265 69.7172 49.3428 69.4514 49.5754 69.2437C49.8081 69.0276 50.1155 68.9196 50.4977 68.9196C50.8799 68.9196 51.1873 69.0276 51.4199 69.2437C51.6526 69.4514 51.7689 69.7172 51.7689 70.0413C51.7689 70.357 51.6526 70.6229 51.4199 70.8389C51.1873 71.0466 50.8799 71.1505 50.4977 71.1505C50.1155 71.1505 49.8081 71.0466 49.5754 70.8389C49.3428 70.6229 49.2265 70.357 49.2265 70.0413ZM51.557 71.9979V78.9522H49.4259V71.9979H51.557ZM57.191 71.9232C57.9886 71.9232 58.62 72.189 59.0853 72.7208C59.5589 73.2525 59.7957 73.9837 59.7957 74.9142V78.9522H57.6646V75.1635C57.6646 74.6982 57.5399 74.3368 57.2907 74.0792C57.0497 73.8133 56.7257 73.6804 56.3186 73.6804C55.8865 73.6804 55.5417 73.8175 55.2842 74.0917C55.0349 74.3659 54.9103 74.7564 54.9103 75.2632V78.9522H52.7791V71.9979H54.9103V73.2691C55.1097 72.8537 55.4046 72.5255 55.7951 72.2846C56.1939 72.0436 56.6592 71.9232 57.191 71.9232ZM63.5941 71.9107C64.1259 71.9107 64.5828 72.0312 64.965 72.2721C65.3472 72.5131 65.6297 72.8412 65.8125 73.2567V71.9979H67.9312V78.9148C67.9312 79.5628 67.8065 80.1444 67.5573 80.6596C67.308 81.183 66.9258 81.5984 66.4107 81.9059C65.8956 82.2133 65.2558 82.367 64.4914 82.367C63.4446 82.367 62.6054 82.1177 61.974 81.6192C61.3508 81.129 60.9769 80.4602 60.8523 79.6127H62.9585C63.025 79.8952 63.1745 80.1154 63.4072 80.2732C63.6481 80.4311 63.9597 80.51 64.3419 80.51C64.7822 80.51 65.1354 80.3812 65.4012 80.1237C65.6754 79.8744 65.8125 79.4715 65.8125 78.9148V77.6934C65.6297 78.1089 65.3472 78.437 64.965 78.678C64.5828 78.9189 64.1259 79.0394 63.5941 79.0394C63.0208 79.0394 62.5057 78.8982 62.0487 78.6157C61.6001 78.3249 61.2428 77.9095 60.9769 77.3694C60.7194 76.8293 60.5906 76.1979 60.5906 75.4751C60.5906 74.7439 60.7194 74.1125 60.9769 73.5807C61.2428 73.0407 61.6001 72.6294 62.0487 72.3469C62.5057 72.0561 63.0208 71.9107 63.5941 71.9107ZM64.2796 73.7801C63.8226 73.7801 63.4529 73.9297 63.1704 74.2288C62.8962 74.5279 62.7591 74.9433 62.7591 75.4751C62.7591 76.0068 62.8962 76.4222 63.1704 76.7213C63.4529 77.0204 63.8226 77.17 64.2796 77.17C64.7282 77.17 65.0938 77.0163 65.3763 76.7089C65.6671 76.4015 65.8125 75.9902 65.8125 75.4751C65.8125 74.9516 65.6671 74.5403 65.3763 74.2412C65.0938 73.9338 64.7282 73.7801 64.2796 73.7801ZM79.2216 78.9522H77.0904L73.5261 73.5433V78.9522H71.3949V70.141H73.5261L77.0904 75.5997V70.141H79.2216V78.9522ZM87.361 71.9979V78.9522H85.2174V77.6934C85.018 78.1005 84.7188 78.4246 84.32 78.6655C83.9295 78.9065 83.4726 79.0269 82.9491 79.0269C82.1515 79.0269 81.5159 78.7611 81.0423 78.2293C80.577 77.6976 80.3444 76.9664 80.3444 76.0359V71.9979H82.4631V75.7742C82.4631 76.2477 82.5836 76.6175 82.8245 76.8833C83.0738 77.1409 83.4061 77.2697 83.8215 77.2697C84.2536 77.2697 84.5942 77.1326 84.8435 76.8584C85.0927 76.5842 85.2174 76.1937 85.2174 75.6869V71.9979H87.361ZM90.7116 73.3065C90.9775 72.8828 91.3181 72.5463 91.7335 72.297C92.1573 72.0478 92.6142 71.9232 93.1045 71.9232V74.2038H92.4938C91.9288 74.2038 91.4884 74.3243 91.1727 74.5653C90.8653 74.8062 90.7116 75.2133 90.7116 75.7866V78.9522H88.5805V71.9979H90.7116V73.3065ZM100.664 71.9979V78.9522H98.5204V77.6934C98.321 78.1005 98.0219 78.4246 97.6231 78.6655C97.2326 78.9065 96.7756 79.0269 96.2522 79.0269C95.4546 79.0269 94.819 78.7611 94.3454 78.2293C93.8801 77.6976 93.6475 76.9664 93.6475 76.0359V71.9979H95.7661V75.7742C95.7661 76.2477 95.8866 76.6175 96.1276 76.8833C96.3768 77.1409 96.7092 77.2697 97.1246 77.2697C97.5566 77.2697 97.8973 77.1326 98.1465 76.8584C98.3958 76.5842 98.5204 76.1937 98.5204 75.6869V71.9979H100.664ZM104.015 69.7297V78.9522H101.884V69.7297H104.015ZM113.228 70.141V71.8359H109.614V73.7676H112.405V75.3878H109.614V78.9522H107.483V70.141H113.228ZM113.874 70.0413C113.874 69.7172 113.99 69.4514 114.223 69.2437C114.455 69.0276 114.763 68.9196 115.145 68.9196C115.527 68.9196 115.835 69.0276 116.067 69.2437C116.3 69.4514 116.416 69.7172 116.416 70.0413C116.416 70.357 116.3 70.6229 116.067 70.8389C115.835 71.0466 115.527 71.1505 115.145 71.1505C114.763 71.1505 114.455 71.0466 114.223 70.8389C113.99 70.6229 113.874 70.357 113.874 70.0413ZM116.204 71.9979V78.9522H114.073V71.9979H116.204ZM121.639 78.9522L119.558 75.9985V78.9522H117.426V69.7297H119.558V74.7896L121.639 71.9979H124.144L121.34 75.4751L124.206 78.9522H121.639ZM126.866 73.3065C127.132 72.8828 127.473 72.5463 127.888 72.297C128.312 72.0478 128.769 71.9232 129.259 71.9232V74.2038H128.649C128.084 74.2038 127.643 74.3243 127.327 74.5653C127.02 74.8062 126.866 75.2133 126.866 75.7866V78.9522H124.735V71.9979H126.866V73.3065ZM129.703 70.0413C129.703 69.7172 129.819 69.4514 130.051 69.2437C130.284 69.0276 130.592 68.9196 130.974 68.9196C131.356 68.9196 131.663 69.0276 131.896 69.2437C132.129 69.4514 132.245 69.7172 132.245 70.0413C132.245 70.357 132.129 70.6229 131.896 70.8389C131.663 71.0466 131.356 71.1505 130.974 71.1505C130.592 71.1505 130.284 71.0466 130.051 70.8389C129.819 70.6229 129.703 70.357 129.703 70.0413ZM132.033 71.9979V78.9522H129.902V71.9979H132.033ZM140.96 77.3445H137.657L137.109 78.9522H134.865L138.093 70.2033H140.548L143.776 78.9522H141.508L140.96 77.3445ZM140.411 75.7243L139.315 72.484L138.205 75.7243H140.411ZM147.496 71.9107C148.393 71.9107 149.145 72.16 149.752 72.6585C150.358 73.1487 150.74 73.8258 150.898 74.6899H148.643C148.576 74.3908 148.439 74.1582 148.231 73.992C148.024 73.8258 147.762 73.7427 147.446 73.7427C147.072 73.7427 146.765 73.8923 146.524 74.1914C146.283 74.4822 146.162 74.9101 146.162 75.4751C146.162 76.04 146.283 76.4721 146.524 76.7712C146.765 77.062 147.072 77.2074 147.446 77.2074C147.762 77.2074 148.024 77.1243 148.231 76.9581C148.439 76.792 148.576 76.5593 148.643 76.2602H150.898C150.74 77.1243 150.358 77.8056 149.752 78.3041C149.145 78.7943 148.393 79.0394 147.496 79.0394C146.815 79.0394 146.208 78.8982 145.676 78.6157C145.153 78.3249 144.742 77.9095 144.443 77.3694C144.143 76.8293 143.994 76.1979 143.994 75.4751C143.994 74.7439 144.139 74.1125 144.43 73.5807C144.729 73.0407 145.145 72.6294 145.676 72.3469C146.208 72.0561 146.815 71.9107 147.496 71.9107ZM154.404 71.9107C154.935 71.9107 155.392 72.0312 155.774 72.2721C156.157 72.5131 156.439 72.8412 156.622 73.2567V71.9979H158.741V78.9522H156.622V77.6934C156.439 78.1089 156.157 78.437 155.774 78.678C155.392 78.9189 154.935 79.0394 154.404 79.0394C153.83 79.0394 153.315 78.8982 152.858 78.6157C152.41 78.3249 152.052 77.9095 151.786 77.3694C151.529 76.8293 151.4 76.1979 151.4 75.4751C151.4 74.7439 151.529 74.1125 151.786 73.5807C152.052 73.0407 152.41 72.6294 152.858 72.3469C153.315 72.0561 153.83 71.9107 154.404 71.9107ZM155.089 73.7801C154.632 73.7801 154.262 73.9297 153.98 74.2288C153.706 74.5279 153.569 74.9433 153.569 75.4751C153.569 76.0068 153.706 76.4222 153.98 76.7213C154.262 77.0204 154.632 77.17 155.089 77.17C155.538 77.17 155.903 77.0163 156.186 76.7089C156.477 76.4015 156.622 75.9902 156.622 75.4751C156.622 74.9516 156.477 74.5403 156.186 74.2412C155.903 73.9338 155.538 73.7801 155.089 73.7801ZM162.601 71.9107C163.133 71.9107 163.589 72.0312 163.972 72.2721C164.354 72.5131 164.632 72.8412 164.807 73.2567V69.7297H166.938V78.9522H164.807V77.6934C164.632 78.1089 164.354 78.437 163.972 78.678C163.589 78.9189 163.133 79.0394 162.601 79.0394C162.027 79.0394 161.512 78.8982 161.055 78.6157C160.607 78.3249 160.249 77.9095 159.984 77.3694C159.726 76.8293 159.597 76.1979 159.597 75.4751C159.597 74.7439 159.726 74.1125 159.984 73.5807C160.249 73.0407 160.607 72.6294 161.055 72.3469C161.512 72.0561 162.027 71.9107 162.601 71.9107ZM163.286 73.7801C162.829 73.7801 162.46 73.9297 162.177 74.2288C161.903 74.5279 161.766 74.9433 161.766 75.4751C161.766 76.0068 161.903 76.4222 162.177 76.7213C162.46 77.0204 162.829 77.17 163.286 77.17C163.735 77.17 164.1 77.0163 164.383 76.7089C164.674 76.4015 164.819 75.9902 164.819 75.4751C164.819 74.9516 164.674 74.5403 164.383 74.2412C164.1 73.9338 163.735 73.7801 163.286 73.7801ZM174.761 75.2881C174.761 75.4626 174.74 75.6537 174.699 75.8614H169.876C169.901 76.3848 170.034 76.7629 170.275 76.9955C170.515 77.2198 170.823 77.332 171.197 77.332C171.513 77.332 171.774 77.2531 171.982 77.0952C172.19 76.9374 172.327 76.7338 172.393 76.4845H174.649C174.558 76.9747 174.358 77.4151 174.051 77.8056C173.743 78.1878 173.353 78.491 172.879 78.7154C172.406 78.9314 171.878 79.0394 171.296 79.0394C170.615 79.0394 170.009 78.8982 169.477 78.6157C168.953 78.3249 168.542 77.9095 168.243 77.3694C167.944 76.8293 167.794 76.1979 167.794 75.4751C167.794 74.7439 167.94 74.1125 168.231 73.5807C168.53 73.0407 168.945 72.6294 169.477 72.3469C170.009 72.0561 170.615 71.9107 171.296 71.9107C171.986 71.9107 172.593 72.0519 173.116 72.3344C173.639 72.6169 174.042 73.0157 174.325 73.5309C174.616 74.0377 174.761 74.6234 174.761 75.2881ZM172.605 74.9641C172.613 74.5071 172.489 74.1665 172.231 73.9421C171.982 73.7095 171.67 73.5932 171.296 73.5932C170.906 73.5932 170.582 73.7095 170.324 73.9421C170.067 74.1748 169.921 74.5154 169.888 74.9641H172.605ZM184.633 71.9232C185.489 71.9232 186.162 72.189 186.652 72.7208C187.143 73.2442 187.388 73.9754 187.388 74.9142V78.9522H185.269V75.1635C185.269 74.7231 185.149 74.3825 184.908 74.1415C184.675 73.8923 184.355 73.7676 183.948 73.7676C183.524 73.7676 183.188 73.9006 182.938 74.1665C182.698 74.424 182.577 74.7896 182.577 75.2632V78.9522H180.446V75.1635C180.446 74.7231 180.33 74.3825 180.097 74.1415C179.864 73.8923 179.544 73.7676 179.137 73.7676C178.714 73.7676 178.377 73.8964 178.128 74.154C177.879 74.4116 177.754 74.7813 177.754 75.2632V78.9522H175.623V71.9979H177.754V73.1819C177.937 72.7914 178.215 72.484 178.589 72.2597C178.971 72.0353 179.416 71.9232 179.922 71.9232C180.454 71.9232 180.924 72.0478 181.331 72.297C181.738 72.538 182.045 72.8869 182.253 73.3439C182.494 72.9119 182.822 72.5671 183.238 72.3095C183.661 72.0519 184.127 71.9232 184.633 71.9232ZM190.162 71.9979L191.832 76.2602L193.39 71.9979H195.745L191.408 82.2673H189.065L190.698 78.6905L187.782 71.9979H190.162Z" fill="#242424"/>
<defs>
<linearGradient id="paint0_linear" x1="9.52759" y1="45.7753" x2="57.1265" y2="23.1305" gradientUnits="userSpaceOnUse">
<stop stop-color="#3FA9F5"/>
<stop offset="0.19" stop-color="#3EA6F2"/>
<stop offset="0.35" stop-color="#3C9BE7"/>
<stop offset="0.5" stop-color="#3789D6"/>
<stop offset="0.65" stop-color="#3170BD"/>
<stop offset="0.8" stop-color="#294F9E"/>
<stop offset="0.94" stop-color="#202877"/>
<stop offset="1" stop-color="#1B1464"/>
</linearGradient>
<linearGradient id="paint1_linear" x1="64.6523" y1="29.206" x2="195.488" y2="46.1551" gradientUnits="userSpaceOnUse">
<stop stop-color="#3FA9F5"/>
<stop offset="0.19" stop-color="#3EA6F2"/>
<stop offset="0.35" stop-color="#3C9BE7"/>
<stop offset="0.5" stop-color="#3789D6"/>
<stop offset="0.65" stop-color="#3170BD"/>
<stop offset="0.8" stop-color="#294F9E"/>
<stop offset="0.94" stop-color="#202877"/>
<stop offset="1" stop-color="#1B1464"/>
</linearGradient>
<clipPath id="clip0">
<rect width="52.1005" height="41.132" fill="white" transform="translate(0 29.4913) rotate(-30)"/>
</clipPath>
</defs>
</svg>
